<?xml version="1.0" standalone="no"?><!DOCTYPE svg PUBLIC "-//W3C//DTD SVG 1.1//EN" "http://www.w3.org/Graphics/SVG/1.1/DTD/svg11.dtd"><svg t="1564200162112" class="icon" viewBox="0 0 1024 1024" version="1.1" xmlns="http://www.w3.org/2000/svg" p-id="1438" xmlns:xlink="http://www.w3.org/1999/xlink" width="200" height="200"><defs><style type="text/css"></style></defs><path d="M459.944 1021.28c-127.12-13.28-250.016-76.616-332.384-171.28-170.08-195.456-170.08-480.96 0-676.416 42.056-48.344 101.088-93.136 161.4-122.48 162.528-79.088 357.28-65.608 507.12 35.104 58.216 39.136 103.92 84.96 142.456 142.824 113.952 171.12 113.952 394.4 0 565.52-105.608 158.6-290.848 246.352-478.592 226.728z m129.664-26.024c136.96-23.24 252.36-97.656 329.2-212.272 110.864-165.4 110.864-376.984 0-542.384-77.984-116.336-195.464-190.984-336.264-213.664-29-4.672-112-4.704-141.264-0.048-138.16 21.968-259.232 98.528-335.256 212.008-75.392 112.528-100.856 244.528-72.536 376C72 793.72 210.352 938.304 387.6 984.96c17.088 4.504 41.248 9.512 53.68 11.136 12.432 1.624 26.416 3.496 31.08 4.16 16.32 2.328 93.464-0.96 117.248-5z m-121.488-45.944c-67.096-8.352-135.312-31.648-187.52-64.048l-10.936-6.792 15.776-1.848c48.752-5.736 106.528-34.448 145.224-72.192l17.6-17.168 7.472 14.72c10.512 20.76 38.12 47.312 60.416 58.128 27.112 13.152 48.144 17.696 82.176 17.776 70.48 0.16 131.984-27.44 185.648-83.336 35.144-36.6 54.704-74.216 63.96-123.016 17.104-90.168-21.688-161.528-97.544-179.408-23.304-5.488-56.184-5.504-77.544-0.04-19.52 5-60.72 24-74.056 34.176-5.048 3.848-9.184 5.68-9.184 4.072 0-1.616 14.624-70.616 32.496-153.344 17.872-82.72 32.488-154.6 32.488-159.728 0-12.392-4.12-13.504-30.416-8.232-12.016 2.408-44.736 7.072-72.704 10.36-64.352 7.552-70.456 9.136-74.664 19.28-3.976 9.6-0.368 21.32 7.944 25.76 3.08 1.656 12.504 3 20.944 3 11.448 0 17.312 1.552 23.112 6.112 7.6 5.976 7.744 6.624 6.528 30.368-0.816 16.056-9.2 60.552-24.792 131.6-12.96 59.04-23.84 107.744-24.2 108.216-0.36 0.48-7.184-6.04-15.16-14.48-33.456-35.36-91.4-50.408-143.032-37.144-20.016 5.144-52.776 20.192-70.504 32.384-7 4.816-12.728 8.144-12.728 7.392 0-0.752 15.264-72.072 33.92-158.48 36.92-170.992 36.84-170.248 18.8-167.144-34.256 5.904-107.96 16.088-111.424 15.408-6.736-1.336 49.048-52.888 78.672-72.696 51.04-34.136 104.976-56.616 164.448-68.544 45.344-9.088 119.816-9.088 165.152 0 177.76 35.64 310.088 166.88 348.8 345.92 9.088 42.056 9.088 128.84 0 170.896-20.672 95.6-65.904 175.248-136.128 239.68-57.52 52.792-132.168 90.2-211.152 105.808-29.504 5.84-103.336 9.632-127.888 6.576z m-228.496-116.056c-25.56-9.04-42.736-36.08-42.736-67.32 0-23.104 26.72-146.432 35.736-164.912 32.28-66.216 126.864-92.56 167.328-46.6 18.536 21.056 26.112 57.72 20.368 98.616-13.328 94.936-56.24 160.904-117.024 179.88-19.792 6.176-46.736 6.32-63.68 0.336z m346.448 0.952c-28.64-10.68-44.416-34.56-44.464-67.328-0.016-11.872 5.144-43.648 13.864-85.32 10.912-52.16 15.84-70.056 22.96-83.408 30.768-57.728 111.144-85.512 155.16-53.632 22.384 16.216 31.984 41.784 31.68 84.416-0.616 86.8-44.576 170.624-104.08 198.464-15.4 7.2-23.416 9.096-41.784 9.84-14.672 0.584-26.496-0.48-33.336-3.04zM106.504 681.28c-10.008-24.44-20.56-59.784-26.128-87.512-8.976-44.72-8.928-119.488 0.112-164.552 10.376-51.76 29.448-101.168 56.168-145.544 9.76-16.208 9.816-16.24 23.52-16.24 7.56 0 16.88 1.192 20.712 2.64 9.44 3.6 14.208 18.848 11.784 37.712-1.6 12.408-78.84 370.776-81.72 379.144-0.536 1.552-2.536-0.992-4.448-5.648z" p-id="1439"></path></svg>